<mxfile host="app.diagrams.net" modified="2020-09-17T03:32:22.234Z" agent="5.0 (Macintosh; Intel Mac OS X 10_15_3) AppleWebKit/537.36 (KHTML, like Gecko) Chrome/85.0.4183.102 Safari/537.36" etag="CxTm3V47JhuI8MgGFO3_" version="13.7.2" type="github">
  <diagram id="vOUrMngWcMrFXS49JwPm" name="Page-1">
    <mxGraphModel dx="946" dy="525" grid="1" gridSize="10" guides="1" tooltips="1" connect="1" arrows="1" fold="1" page="1" pageScale="1" pageWidth="827" pageHeight="1169" math="0" shadow="0">
      <root>
        <mxCell id="0" />
        <mxCell id="1" parent="0" />
        <mxCell id="3s_Is7sOF_pp1LU2TNVd-1" value="" style="rounded=0;whiteSpace=wrap;html=1;" parent="1" vertex="1">
          <mxGeometry x="100" y="150" width="820" height="100" as="geometry" />
        </mxCell>
        <mxCell id="3s_Is7sOF_pp1LU2TNVd-2" value="接口层" style="text;html=1;strokeColor=none;fillColor=none;align=center;verticalAlign=middle;whiteSpace=wrap;rounded=0;rotation=0;fontSize=16;" parent="1" vertex="1">
          <mxGeometry x="110" y="170" width="20" height="70" as="geometry" />
        </mxCell>
        <mxCell id="3s_Is7sOF_pp1LU2TNVd-3" value="商品接口" style="rounded=0;whiteSpace=wrap;html=1;fillColor=#008a00;strokeColor=#005700;fontColor=#ffffff;" parent="1" vertex="1">
          <mxGeometry x="180" y="160" width="100" height="30" as="geometry" />
        </mxCell>
        <mxCell id="3s_Is7sOF_pp1LU2TNVd-4" value="订单接口" style="rounded=0;whiteSpace=wrap;html=1;fillColor=#008a00;strokeColor=#005700;fontColor=#ffffff;" parent="1" vertex="1">
          <mxGeometry x="300" y="160" width="100" height="30" as="geometry" />
        </mxCell>
        <mxCell id="3s_Is7sOF_pp1LU2TNVd-5" value="购物车接口" style="rounded=0;whiteSpace=wrap;html=1;fillColor=#008a00;strokeColor=#005700;fontColor=#ffffff;" parent="1" vertex="1">
          <mxGeometry x="420" y="160" width="100" height="30" as="geometry" />
        </mxCell>
        <mxCell id="3s_Is7sOF_pp1LU2TNVd-6" value="售后接口" style="rounded=0;whiteSpace=wrap;html=1;fillColor=#008a00;strokeColor=#005700;fontColor=#ffffff;" parent="1" vertex="1">
          <mxGeometry x="540" y="160" width="100" height="30" as="geometry" />
        </mxCell>
        <mxCell id="3s_Is7sOF_pp1LU2TNVd-7" value="APP" style="rounded=0;whiteSpace=wrap;html=1;fillColor=#008a00;strokeColor=#005700;fontColor=#ffffff;" parent="1" vertex="1">
          <mxGeometry x="180" y="60" width="100" height="30" as="geometry" />
        </mxCell>
        <mxCell id="3s_Is7sOF_pp1LU2TNVd-8" value="小程序" style="rounded=0;whiteSpace=wrap;html=1;fillColor=#008a00;strokeColor=#005700;fontColor=#ffffff;" parent="1" vertex="1">
          <mxGeometry x="310" y="60" width="100" height="30" as="geometry" />
        </mxCell>
        <mxCell id="3s_Is7sOF_pp1LU2TNVd-9" value="管理后台" style="rounded=0;whiteSpace=wrap;html=1;fillColor=#008a00;strokeColor=#005700;fontColor=#ffffff;" parent="1" vertex="1">
          <mxGeometry x="540" y="60" width="100" height="30" as="geometry" />
        </mxCell>
        <mxCell id="3s_Is7sOF_pp1LU2TNVd-12" value="" style="endArrow=classic;html=1;fontSize=16;entryX=0.5;entryY=1;entryDx=0;entryDy=0;" parent="1" target="3s_Is7sOF_pp1LU2TNVd-7" edge="1">
          <mxGeometry width="50" height="50" relative="1" as="geometry">
            <mxPoint x="230" y="147" as="sourcePoint" />
            <mxPoint x="270" y="100" as="targetPoint" />
          </mxGeometry>
        </mxCell>
        <mxCell id="3s_Is7sOF_pp1LU2TNVd-13" value="" style="endArrow=classic;html=1;fontSize=16;entryX=0.5;entryY=1;entryDx=0;entryDy=0;exitX=0.188;exitY=-0.03;exitDx=0;exitDy=0;exitPerimeter=0;" parent="1" edge="1">
          <mxGeometry width="50" height="50" relative="1" as="geometry">
            <mxPoint x="359.5" y="147" as="sourcePoint" />
            <mxPoint x="359.78" y="90" as="targetPoint" />
          </mxGeometry>
        </mxCell>
        <mxCell id="3s_Is7sOF_pp1LU2TNVd-14" value="" style="endArrow=classic;html=1;fontSize=16;entryX=0.5;entryY=1;entryDx=0;entryDy=0;exitX=0.188;exitY=-0.03;exitDx=0;exitDy=0;exitPerimeter=0;" parent="1" edge="1">
          <mxGeometry width="50" height="50" relative="1" as="geometry">
            <mxPoint x="589.5" y="147" as="sourcePoint" />
            <mxPoint x="589.78" y="90" as="targetPoint" />
          </mxGeometry>
        </mxCell>
        <mxCell id="3s_Is7sOF_pp1LU2TNVd-15" value="推广接口" style="rounded=0;whiteSpace=wrap;html=1;fillColor=#008a00;strokeColor=#005700;fontColor=#ffffff;" parent="1" vertex="1">
          <mxGeometry x="180" y="210" width="100" height="30" as="geometry" />
        </mxCell>
        <mxCell id="3s_Is7sOF_pp1LU2TNVd-17" value="分销商接口" style="rounded=0;whiteSpace=wrap;html=1;fillColor=#008a00;strokeColor=#005700;fontColor=#ffffff;" parent="1" vertex="1">
          <mxGeometry x="300" y="210" width="100" height="30" as="geometry" />
        </mxCell>
        <mxCell id="3s_Is7sOF_pp1LU2TNVd-18" value="会员接口" style="rounded=0;whiteSpace=wrap;html=1;fillColor=#008a00;strokeColor=#005700;fontColor=#ffffff;" parent="1" vertex="1">
          <mxGeometry x="420" y="210" width="100" height="30" as="geometry" />
        </mxCell>
        <mxCell id="3s_Is7sOF_pp1LU2TNVd-19" value="支付接口" style="rounded=0;whiteSpace=wrap;html=1;fillColor=#008a00;strokeColor=#005700;fontColor=#ffffff;" parent="1" vertex="1">
          <mxGeometry x="540" y="210" width="100" height="30" as="geometry" />
        </mxCell>
        <mxCell id="3s_Is7sOF_pp1LU2TNVd-20" value="库存接口" style="rounded=0;whiteSpace=wrap;html=1;fillColor=#008a00;strokeColor=#005700;fontColor=#ffffff;" parent="1" vertex="1">
          <mxGeometry x="660" y="160" width="100" height="30" as="geometry" />
        </mxCell>
        <mxCell id="3s_Is7sOF_pp1LU2TNVd-21" value="统计分析接口" style="rounded=0;whiteSpace=wrap;html=1;fillColor=#008a00;strokeColor=#005700;fontColor=#ffffff;" parent="1" vertex="1">
          <mxGeometry x="660" y="210" width="100" height="30" as="geometry" />
        </mxCell>
        <mxCell id="3s_Is7sOF_pp1LU2TNVd-22" value="" style="rounded=0;whiteSpace=wrap;html=1;fontSize=16;" parent="1" vertex="1">
          <mxGeometry x="100" y="260" width="820" height="210" as="geometry" />
        </mxCell>
        <mxCell id="3s_Is7sOF_pp1LU2TNVd-23" value="领域层" style="text;html=1;strokeColor=none;fillColor=none;align=center;verticalAlign=middle;whiteSpace=wrap;rounded=0;rotation=0;fontSize=16;" parent="1" vertex="1">
          <mxGeometry x="110" y="285" width="20" height="125" as="geometry" />
        </mxCell>
        <mxCell id="GR0XFzsMtlSF94ITTyiH-1" value="商品域" style="rounded=0;whiteSpace=wrap;html=1;fillColor=#008a00;strokeColor=#005700;fontColor=#ffffff;" vertex="1" parent="1">
          <mxGeometry x="180" y="280" width="80" height="70" as="geometry" />
        </mxCell>
        <mxCell id="GR0XFzsMtlSF94ITTyiH-2" value="分销域" style="rounded=0;whiteSpace=wrap;html=1;fillColor=#008a00;strokeColor=#005700;fontColor=#ffffff;" vertex="1" parent="1">
          <mxGeometry x="180" y="370" width="80" height="70" as="geometry" />
        </mxCell>
        <mxCell id="GR0XFzsMtlSF94ITTyiH-4" value="订单域" style="rounded=0;whiteSpace=wrap;html=1;fillColor=#008a00;strokeColor=#005700;fontColor=#ffffff;" vertex="1" parent="1">
          <mxGeometry x="300" y="280" width="80" height="70" as="geometry" />
        </mxCell>
        <mxCell id="GR0XFzsMtlSF94ITTyiH-5" value="购物车域" style="rounded=0;whiteSpace=wrap;html=1;fillColor=#008a00;strokeColor=#005700;fontColor=#ffffff;" vertex="1" parent="1">
          <mxGeometry x="420" y="280" width="80" height="70" as="geometry" />
        </mxCell>
        <mxCell id="GR0XFzsMtlSF94ITTyiH-6" value="库存域" style="rounded=0;whiteSpace=wrap;html=1;fillColor=#008a00;strokeColor=#005700;fontColor=#ffffff;" vertex="1" parent="1">
          <mxGeometry x="540" y="280" width="80" height="70" as="geometry" />
        </mxCell>
        <mxCell id="GR0XFzsMtlSF94ITTyiH-7" value="物流接口" style="rounded=0;whiteSpace=wrap;html=1;fillColor=#008a00;strokeColor=#005700;fontColor=#ffffff;" vertex="1" parent="1">
          <mxGeometry x="780" y="160" width="100" height="30" as="geometry" />
        </mxCell>
        <mxCell id="GR0XFzsMtlSF94ITTyiH-8" value="事件上报接口" style="rounded=0;whiteSpace=wrap;html=1;fillColor=#008a00;strokeColor=#005700;fontColor=#ffffff;" vertex="1" parent="1">
          <mxGeometry x="780" y="210" width="100" height="30" as="geometry" />
        </mxCell>
        <mxCell id="GR0XFzsMtlSF94ITTyiH-10" value="物流域" style="rounded=0;whiteSpace=wrap;html=1;fillColor=#008a00;strokeColor=#005700;fontColor=#ffffff;" vertex="1" parent="1">
          <mxGeometry x="670" y="280" width="80" height="70" as="geometry" />
        </mxCell>
        <mxCell id="GR0XFzsMtlSF94ITTyiH-11" value="事件分析域" style="rounded=0;whiteSpace=wrap;html=1;fillColor=#008a00;strokeColor=#005700;fontColor=#ffffff;" vertex="1" parent="1">
          <mxGeometry x="300" y="370" width="80" height="70" as="geometry" />
        </mxCell>
        <mxCell id="GR0XFzsMtlSF94ITTyiH-13" value="会员域" style="rounded=0;whiteSpace=wrap;html=1;fillColor=#008a00;strokeColor=#005700;fontColor=#ffffff;" vertex="1" parent="1">
          <mxGeometry x="420" y="370" width="80" height="70" as="geometry" />
        </mxCell>
        <mxCell id="GR0XFzsMtlSF94ITTyiH-14" value="支付域" style="rounded=0;whiteSpace=wrap;html=1;fillColor=#008a00;strokeColor=#005700;fontColor=#ffffff;" vertex="1" parent="1">
          <mxGeometry x="540" y="370" width="80" height="70" as="geometry" />
        </mxCell>
        <mxCell id="GR0XFzsMtlSF94ITTyiH-16" value="" style="rounded=0;whiteSpace=wrap;html=1;fontSize=16;" vertex="1" parent="1">
          <mxGeometry x="100" y="480" width="820" height="120" as="geometry" />
        </mxCell>
        <mxCell id="GR0XFzsMtlSF94ITTyiH-17" value="数据层" style="text;html=1;strokeColor=none;fillColor=none;align=center;verticalAlign=middle;whiteSpace=wrap;rounded=0;rotation=0;fontSize=16;" vertex="1" parent="1">
          <mxGeometry x="110" y="480" width="20" height="125" as="geometry" />
        </mxCell>
      </root>
    </mxGraphModel>
  </diagram>
</mxfile>
